<svg width="40" height="40" viewBox="0 0 40 40" fill="none" xmlns="http://www.w3.org/2000/svg">
<path d="M0 14C0 6.26801 6.26801 0 14 0H26C33.732 0 40 6.26801 40 14V26C40 33.732 33.732 40 26 40H14C6.26801 40 0 33.732 0 26V14Z" fill="#10B981"/>
<path d="M29.42 18.9224C29.5991 18.8434 29.751 18.7136 29.857 18.5492C29.963 18.3847 30.0184 18.1927 30.0164 17.9971C30.0143 17.8014 29.955 17.6107 29.8456 17.4484C29.7362 17.2862 29.5817 17.1596 29.401 17.0844L20.83 13.1804C20.5695 13.0615 20.2864 13 20 13C19.7137 13 19.4306 13.0615 19.17 13.1804L10.6 17.0804C10.422 17.1583 10.2706 17.2865 10.1642 17.4492C10.0579 17.6119 10.0012 17.802 10.0012 17.9964C10.0012 18.1907 10.0579 18.3809 10.1642 18.5435C10.2706 18.7062 10.422 18.8344 10.6 18.9124L19.17 22.8204C19.4306 22.9392 19.7137 23.0007 20 23.0007C20.2864 23.0007 20.5695 22.9392 20.83 22.8204L29.42 18.9224Z" stroke="white" stroke-width="2" stroke-linecap="round" stroke-linejoin="round"/>
<path d="M30 18V24" stroke="white" stroke-width="2" stroke-linecap="round" stroke-linejoin="round"/>
<path d="M14 20.5V24C14 24.7956 14.6321 25.5587 15.7574 26.1213C16.8826 26.6839 18.4087 27 20 27C21.5913 27 23.1174 26.6839 24.2426 26.1213C25.3679 25.5587 26 24.7956 26 24V20.5" stroke="white" stroke-width="2" stroke-linecap="round" stroke-linejoin="round"/>
</svg>
